<svg version="1" xmlns="http://www.w3.org/2000/svg" width="4800" height="4800" viewBox="0 0 3600.000000 3600.000000"><path d="M1773 54.3c-.3.3-2.7.7-5.5 1.1-14 1.6-32.1 6-47.3 11.5-11.9 4.3-22.6 9-47.7 21.1-20.3 9.8-32.2 15.5-70 33.5-6 2.8-15.7 7.5-21.5 10.2-5.8 2.8-15.7 7.6-22 10.6-6.3 3-17.8 8.5-25.5 12.2-7.7 3.7-17.4 8.3-21.5 10.2-4.1 1.8-8.8 4.1-10.5 5-4.8 2.7-14.8 7.4-35 16.8-3.8 1.8-13.3 6.3-21 10-14 6.7-27.5 13.2-43.5 20.7-4.6 2.2-15.3 7.4-23.7 11.4-8.5 4.1-19.2 9.2-23.9 11.4-4.6 2.2-14.4 6.9-21.7 10.4-7.3 3.5-16.6 8-20.7 9.9-4.1 1.9-15.1 7.2-24.5 11.7-9.3 4.5-19.7 9.5-23 11-3.3 1.5-13.2 6.3-22 10.5s-18.7 9-22 10.5c-3.3 1.5-13.4 6.4-22.5 10.7-9.1 4.4-20.5 9.9-25.5 12.3-4.9 2.3-14.6 7-21.5 10.3-6.9 3.3-16.1 7.6-20.5 9.7-4.4 2-14.1 6.7-21.5 10.2-16.5 8-32.3 15.5-45.5 21.8-5.5 2.6-15.8 7.6-23 11-7.1 3.4-17.7 8.5-23.5 11.2-5.8 2.8-15.7 7.5-22 10.5-6.3 3.1-16 7.7-21.5 10.3-5.5 2.6-15.8 7.6-23 11-32.4 15.6-38.6 18.5-47.4 22.7-17.4 8.1-26.6 12.5-28.1 13.4-.8.5-2.2 1.2-3 1.6-3.9 1.7-24.6 11.5-58.5 27.8-7.7 3.7-17.1 8.2-21 10-6.6 3.1-12.5 5.9-45 21.5-7.1 3.4-17.5 8.4-23 11-5.5 2.6-16.1 7.7-23.5 11.2-7.4 3.6-15.5 7.5-18 8.6-2.5 1.1-13.9 6.6-25.4 12.1-11.5 5.6-20.9 10.1-21.1 10.1-.1 0-9.2 4.3-20.1 9.6-11 5.3-22.6 10.8-25.9 12.4-3.3 1.6-14.5 6.9-24.8 11.9s-18.9 9.1-19.1 9.1c-.2 0-8.1 3.8-17.7 8.4-19.3 9.3-33.4 16-48.4 23.1-58.2 27.5-75 38.1-100.5 63.5-30.6 30.3-51.9 67.7-63 110.7-1.7 6.4-3.3 13-3.6 14.7-.2 1.7-.7 3.9-1 4.8-.3.9-.7 2.5-.9 3.5-.4 1.7-2.5 11.3-8 35-1.3 6-3.6 15.7-5 21.8-4 17.4-6.6 28.8-7.1 31.1-.2 1.2-2.4 10.7-4.8 21-4.4 18.6-18.3 79.5-19 83.1-.3 1-1.3 5.6-2.4 10.3-4.6 19.1-8.2 35-10.2 44-1.1 5.2-2.5 11.3-3.1 13.4-.6 2.2-1.2 4.8-1.4 5.8-.2 1-3.2 13.8-6.5 28.6-6.2 26.9-6.7 28.8-7.4 31.9-.2 1-3.6 15.6-7.5 32.5s-7.2 31.7-7.5 33c-.2 1.3-1.1 5-2 8.3-.8 3.3-2.2 9.1-3 13-.9 3.8-2.7 11.9-4.1 18-1.4 6-2.8 12.1-3.1 13.5-.6 3-2.4 10.9-3 13-.7 2.8-4.5 19.5-5 22-.3 1.4-1.8 7.9-3.4 14.5-1.6 6.6-3.1 13.1-3.4 14.5-.5 2.7-8.8 38.8-11.1 48.5-.8 3.3-2.8 12.1-4.4 19.6-1.7 7.4-3.3 14.2-3.5 15-.3.8-.8 2.5-1 3.9-.3 1.4-1.6 7.7-3.1 14-1.4 6.3-2.8 12.3-3 13.3-.2 1-.6 2.6-.9 3.5-.3.9-.7 2.8-1 4.2-.2 1.4-1.2 5.6-2.1 9.5-2 8.3-2.5 10.3-3.1 13.3-.5 2.7-3.8 16.5-6.6 28.2-1.1 4.7-2.2 9.6-2.5 11-.2 1.4-2.2 10.1-4.4 19.5-2.2 9.3-4.2 18.1-4.5 19.4-.3 1.2-1.2 5.3-2 9-.9 3.6-1.7 7.3-1.9 8.1-.2.8-1.1 4.6-2 8.5-.9 3.8-1.9 8.1-2.2 9.5-.2 1.4-.9 4.3-1.4 6.5-1.1 4.6-3.8 16.1-4.4 19-.3 1.1-2.1 9-4.1 17.5-1.9 8.5-3.7 16.4-4 17.5-.2 1.1-.7 3.3-1.1 5-.4 1.6-.7 3.2-.8 3.5-.9 4-5.3 23.2-7.5 32.5-1.6 6.6-3.1 13.1-3.4 14.5-.5 2.7-5.7 25.5-15.5 67.5-9 39.1-17.2 74.7-17.8 77.5-.5 2.6-.6 3-1.6 7-.6 2.2-13.4 58.1-14.2 62-.2.8-3.1 13.4-6.5 28s-6.8 29.4-7.5 33c-.8 3.6-3.1 13.2-5 21.5-2 8.2-3.9 16.1-4.1 17.4-.3 1.3-3 13.2-6 26.5-3.1 13.2-5.7 24.8-5.9 25.6-2.8 12.9-14.8 64.5-15.6 67.5-.6 2.2-1.3 5.1-1.6 6.5-.2 1.4-1 5.6-1.8 9.5-.8 3.8-1.7 9.2-2 12-.4 2.7-.9 6.1-1.2 7.5-.3 1.4-.6 12.2-.8 24-.2 16.8.2 24.3 1.7 34.5 3.7 25.7 10.6 48.7 21.4 71.2 8.9 18.6 16.9 31 33.1 51.3 22.4 28 71.8 89.5 72.8 90.6.5.6 2.4 2.9 4 5 1.7 2.1 8.8 11 16 19.9 7.1 8.8 13.2 16.4 13.7 17 .4.5 2 2.6 3.6 4.5s10.2 12.7 19.3 24c9 11.3 17 21.1 17.6 21.8.7.7 3.4 4.1 6 7.5 2.6 3.4 5 6.4 5.3 6.7.4.3 10.7 13.1 23 28.5s22.9 28.5 23.5 29.2c1.2 1.5-.9-1.2 23.5 29.3 11.3 14 20.7 25.7 21 26 .3.3 7.5 9.3 16 20s15.7 19.7 16.1 20c.8.7 19.2 23.7 25.9 32.4 1.4 1.8 4.4 5.5 6.7 8.2 2.3 2.7 12.1 14.8 21.7 26.9 9.7 12.1 18.2 22.7 18.9 23.5.7.8 8.6 10.7 17.7 22 9 11.3 16.9 21 17.5 21.7.5.7 1.5 1.8 2 2.5 19.1 23.8 42.2 52.6 43 53.4.5.6 2.1 2.6 3.5 4.5 1.4 1.8 3.9 4.9 5.5 6.9 1.7 1.9 6.4 7.8 10.5 13s8.4 10.6 9.7 12c1.2 1.4 11.9 14.6 23.8 29.5 11.9 14.8 22.1 27.7 22.8 28.5 3.1 3.8 9.3 11.6 10.7 13.3.8 1.1 2 2.4 2.5 3.1.6.6 2.6 3.1 4.5 5.6 1.9 2.5 3.7 4.7 4 5 .3.3 12.5 15.3 27 33.5 14.5 18.1 27.5 34.4 28.9 36 1.4 1.7 4 4.8 5.6 7 1.7 2.1 5.3 6.6 8 9.9 2.8 3.4 11.4 14 19 23.6 7.7 9.6 14.7 18.4 15.7 19.5.9 1.1 6 7.4 11.2 14 5.3 6.6 10.2 12.7 10.9 13.5 1.4 1.8 19.4 24.2 40.6 50.5 8.4 10.4 16 19.9 16.9 21 1.7 2.1 8.7 10.8 10.9 13.5 2 2.6 10.7 13.4 12 15 2.2 2.7 16.4 20.4 19.7 24.5 1.7 2.1 4.3 5.3 5.7 7 1.4 1.6 17.3 21.4 35.4 44 70.9 88.4 68.7 85.7 81 97.8 37.2 36.6 80 57.6 135 66.6 5.9.9 1447 .7 1453.5-.2 3-.5 6.2-1 7-1.2.8-.2 3.1-.7 5-1 18.9-3.2 42.2-11 62.1-21 23.6-11.8 43.7-26.3 62.9-45.6 7.6-7.7 15.5-16.7 24.3-27.9.7-.8 2.3-2.9 3.7-4.6 1.4-1.7 3.7-4.6 5.2-6.5 14.5-18.1 18.2-22.7 19.7-24.4.9-1.1 11.5-14.4 23.6-29.5 12.1-15.1 22.2-27.7 22.5-28 .3-.3 5.9-7.3 12.5-15.5 6.5-8.3 12.2-15.2 12.5-15.5.3-.3 2.1-2.5 4-5s3.7-4.7 4-5c.3-.3 6.9-8.4 14.5-18 7.7-9.6 14.8-18.4 15.7-19.5.9-1.1 8.5-10.6 16.8-21 8.4-10.5 16.4-20.4 17.8-22.1 1.5-1.7 4.1-4.8 5.7-7 2.5-3.2 14.5-18.1 18.8-23.4.7-.8 5.7-7.1 11.2-14 5.5-6.9 10.8-13.4 11.7-14.5.9-1.1 8.5-10.6 16.8-21 8.4-10.5 15.9-19.9 16.8-21 2.5-2.9 18.5-22.8 19.4-24 .4-.6 2.2-2.8 4-5 1.9-2.2 8.8-10.7 15.3-19 6.6-8.2 12.5-15.5 13-16.1.6-.6 2.4-2.8 4-4.9 6.2-8 28.1-35.2 33.6-41.9 2.3-2.8 19.9-24.7 67.9-84.6 9.1-11.3 16.7-20.7 17-21 .3-.3 2.1-2.5 4-5s3.7-4.7 4-5c.3-.3 5.9-7.3 12.5-15.5 6.6-8.3 12.2-15.2 12.5-15.5.3-.3 4.8-5.9 10-12.5s9.7-12.2 10-12.5c.3-.3 8.8-10.9 19-23.5 10.1-12.7 19.5-24.4 20.9-26.1 3.6-4.3 4.1-4.9 19.7-24.5 7.7-9.5 14.6-18.3 15.6-19.4 5.3-6.4 9.9-12.3 14.8-18.5 1.9-2.5 3.7-4.7 4-5 .3-.3 3.4-4.1 7-8.5 3.5-4.4 8-10 10-12.5s7.4-9.2 12-15c4.6-5.8 8.7-10.7 9-11 .3-.3 3-3.6 6-7.5 3-3.8 6-7.7 6.7-8.5.7-.8 7.6-9.4 15.3-19 7.7-9.6 14.6-18.2 15.3-19 .7-.8 6.8-8.5 13.6-17 6.9-8.5 13.6-16.9 15-18.6 4.9-6 14.6-18 46.2-57.4 40.5-50.6 53.3-66.4 54.4-67.6.5-.6 1.9-2.3 3-3.8 1.1-1.6 2.5-3.3 3.1-4 .5-.6 9.5-11.7 19.8-24.6 10.4-12.9 20.4-25.3 22.2-27.5 25.7-31.3 38.5-48.8 47.5-65 12.1-21.7 23.2-53.4 26.4-75.5.4-2.4.8-4.7 1-5 1.7-3 2.6-44.2 1.3-58-1.6-15.4-2.5-20.4-12.3-62.5-3.7-15.9-6.8-29.6-7-30.5-.3-1.4-4.2-18.4-5-22-.2-.8-1.5-6.5-2.9-12.5-1.5-6.1-3.3-13.9-4.1-17.5-.8-3.6-2.6-11.5-4-17.5-1.4-6.1-2.8-12.1-3.1-13.5-.3-1.4-1.4-6.1-2.4-10.5-1.1-4.4-2.7-11.2-3.5-15-.8-3.9-1.7-7.7-1.9-8.5-.2-.8-2-8.7-4.1-17.5-2-8.8-4.7-20.7-6.1-26.5-1.3-5.8-2.6-11.4-2.8-12.5-.3-1.1-1.9-8.1-3.6-15.5-1.8-7.4-3.3-14.2-3.5-15-.2-.8-1.9-8.5-3.9-17s-3.8-16.4-4.1-17.5c-.2-1.1-2-9.2-4.1-18-2-8.8-4.3-18.9-5.1-22.5-.8-3.6-1.6-7.2-1.8-8-.5-1.7-7.8-33.1-10-43-.8-3.6-2.6-11.5-4-17.5-1.4-6.1-2.8-12.1-3.1-13.5-.3-1.4-1.6-7-2.9-12.5-1.3-5.5-2.6-11.1-2.8-12.5-.3-1.4-1-4.5-1.7-7s-1.4-5.6-1.7-7c-.2-1.4-.9-4.5-1.4-7-.6-2.5-1.2-5.2-1.4-6-.2-.8-1.7-7.3-3.4-14.4-1.7-7-3.3-13.8-3.5-15-.4-2.1-2.9-12.8-6.6-28.6-1.1-4.7-2.7-11.7-3.5-15.5-2.3-10.1-2.9-12.5-7.1-30.5-.9-3.6-1.8-7.4-2-8.5-.2-1.1-.8-4.1-1.4-6.6-.6-2.6-1.3-5.3-1.4-6-.2-.8-.6-2.8-1-4.4-.4-1.7-1.1-4.8-1.6-7s-2-8.7-3.4-14.5c-1.4-5.8-3.9-16.6-5.6-24-1.6-7.4-5.7-25.2-9-39.5-5.5-23.5-6.9-29.5-8.6-37.5-.2-1.4-.7-3.3-1-4.2-.3-.9-.7-2.7-.9-4-.2-1.3-.9-4.1-1.4-6.3-.6-2.2-1.7-6.9-2.5-10.5-.8-3.6-2.4-10.3-3.5-15-1.1-4.7-2.2-9.6-2.5-11-.4-2.4-6.8-29.8-14.1-61.5-2-8.3-3.7-15.9-4-17-.4-2-1.7-7.7-14.5-63-3.9-17.1-7.3-31.9-7.5-33-.3-1.1-1.3-5.8-2.4-10.5-1.2-4.7-5-21.3-8.6-37-3.6-15.7-7.2-31.3-8.1-34.8-.8-3.5-2.1-9.6-3-13.5-2-9.5-1.9-9-4.3-18.7-2.2-9.2-19.4-83.6-21.6-93.5-.7-3.3-2.7-12.1-4.4-19.6-1.8-7.5-3.3-14.5-3.5-15.5-.2-1.1-.9-3.9-1.6-6.4-.7-2.5-1.4-5.6-1.7-7-.2-1.4-.9-4.3-1.5-6.5-.5-2.2-1.2-5.1-1.4-6.4-.3-1.2-1.2-5.3-2-9-.9-3.6-1.8-7.5-2-8.6-.2-1.1-2.6-11.7-5.4-23.5-11.2-48-15.9-68.6-16.4-71-4.1-22.9-17.1-56.6-30.3-78.2-20.1-33.1-50.4-63-83.3-82.3-4.5-2.6-35.1-17.8-55.5-27.5-6-2.9-16.2-7.7-22.5-10.7-17.9-8.6-33.6-16.1-44-21-5.2-2.5-14.2-6.8-20-9.5-12.2-5.9-29.3-14-43.5-20.8-15-7.2-31.6-15.1-45-21.5-19.7-9.5-36.4-17.4-46.4-22.2-5.2-2.4-14.9-7-21.5-10.2-27.9-13.4-50.4-24.2-65.1-31.1-4.4-2.1-16.5-7.9-26.8-12.9-10.4-5-19-9.1-19.2-9.1-.2 0-10.5-5-23-11-12.5-6.1-22.8-11-23-11-.1 0-8.3-3.9-18.1-8.6-17-8.2-27.5-13.2-47.9-22.9-4.9-2.3-14.8-7.1-22-10.5-7.1-3.4-16.8-8-21.5-10.2-4.7-2.2-14.6-7-22-10.5-7.4-3.6-17.5-8.5-22.5-10.8-18-8.5-41-19.5-67-32-7.7-3.7-18-8.6-23-11-21.2-10-28.8-13.7-43-20.5-8.2-4-18.1-8.7-22-10.5-3.8-1.8-13.5-6.4-21.5-10.2-8-3.9-17.9-8.6-22-10.6-4.1-1.9-13.3-6.3-20.5-9.7-7.1-3.4-17.9-8.6-24-11.5-6-2.9-16.2-7.7-22.5-10.8-6.3-3-16.4-7.8-22.5-10.7-6-2.9-16.6-7.9-23.5-11.2-6.9-3.3-17-8.2-22.5-10.8-13.3-6.3-26.4-12.5-47.4-22.6-9.5-4.6-17.4-8.4-17.6-8.4-.1 0-9.2-4.3-20.1-9.6-11-5.3-21.8-10.4-24.1-11.5-2.2-1-13-6.1-23.8-11.4-10.9-5.2-19.9-9.5-20.1-9.5-.1 0-10.4-5-22.9-11-12.5-6.1-22.8-11-23-11-.2 0-7.7-3.5-16.7-7.9-32-15.4-40.4-19.4-48.3-23.1-7.6-3.6-17-8.1-47.5-22.7-27-13-39.5-17.8-58.9-22.8-20-5.1-25.2-5.7-55.6-6.2-16-.2-29.3-.2-29.5 0z"/></svg>